<?xml version="1.0" standalone="no"?>
<!DOCTYPE svg PUBLIC "-//W3C//DTD SVG 20010904//EN"
 "http://www.w3.org/TR/2001/REC-SVG-20010904/DTD/svg10.dtd">
<svg version="1.0" xmlns="http://www.w3.org/2000/svg"
 width="271.000000pt" height="186.000000pt" viewBox="0 0 271.000000 186.000000"
 preserveAspectRatio="xMidYMid meet">

<g transform="translate(0.000000,186.000000) scale(0.100000,-0.100000)"
fill="#000000" stroke="none">
<path d="M840 1523 c0 -30 -3 -33 -30 -33 l-30 0 0 -135 0 -135 -35 0 -35 0 0
-100 0 -100 35 0 35 0 0 -135 0 -135 30 0 c28 0 30 -3 30 -35 l0 -35 105 0
105 0 0 -165 0 -165 30 0 30 0 0 -70 0 -70 35 0 c32 0 35 -2 35 -30 0 -28 3
-30 35 -30 32 0 35 2 35 29 0 26 4 30 33 33 28 3 32 7 35 36 l3 32 65 0 64 0
0 -36 c0 -34 1 -35 33 -32 l32 3 3 67 3 68 -136 0 -135 0 0 -70 0 -70 -35 0
-35 0 0 240 0 240 235 0 235 0 0 -170 0 -170 -30 0 -30 0 0 -70 0 -70 -35 0
c-32 0 -35 -2 -35 -30 0 -28 3 -30 35 -30 32 0 35 2 35 30 0 27 3 30 30 30
l30 0 0 70 0 70 35 0 35 0 0 165 0 165 100 0 100 0 0 35 c0 33 2 35 35 35 l35
0 0 370 0 370 -35 0 c-33 0 -35 2 -35 33 l0 32 -540 0 -540 0 0 -32z m1080
-401 l0 -369 -152 -6 c-193 -9 -568 -9 -770 0 l-158 6 0 134 0 133 35 0 35 0
0 100 0 100 -35 0 -35 0 0 135 0 135 540 0 540 0 0 -368z m-203 -424 c-3 -7
-5 -2 -5 12 0 14 2 19 5 13 2 -7 2 -19 0 -25z"/>
<path d="M1115 1120 l0 -300 368 0 367 0 0 300 0 300 -367 0 -368 0 0 -300z
m135 0 c0 -39 -1 -40 -35 -40 -34 0 -35 1 -35 40 0 39 1 40 35 40 34 0 35 -1
35 -40z m540 0 c0 -39 -1 -40 -35 -40 -34 0 -35 1 -35 40 0 39 1 40 35 40 34
0 35 -1 35 -40z m-400 -65 l0 -35 95 0 95 0 0 35 c0 34 1 35 40 35 l40 0 0
-70 0 -70 -175 0 -175 0 0 70 0 70 40 0 c39 0 40 -1 40 -35z"/>
<path d="M1250 515 l0 -95 30 0 30 0 0 95 0 95 -30 0 -30 0 0 -95z"/>
</g>
</svg>
